<svg width="20" height="20" viewBox="0 0 20 20" fill="none" xmlns="http://www.w3.org/2000/svg">
<path fill-rule="evenodd" clip-rule="evenodd" d="M5.20004 1.66851H13.95C15.0932 1.63493 16.2024 2.05993 17.0304 2.84883C17.8585 3.63774 18.3366 4.72503 18.3584 5.86851V12.1935C18.2903 14.5442 16.343 16.4023 13.9917 16.3602H12.6417C12.3024 16.3611 11.9813 16.514 11.7667 16.7768L10.4917 18.4018C10.2781 18.6661 9.95652 18.8197 9.61671 18.8197C9.2769 18.8197 8.95529 18.6661 8.74171 18.4018L7.42504 16.7435C7.21046 16.4806 6.88938 16.3277 6.55004 16.3268H5.20004C2.84873 16.3689 0.901493 14.5109 0.833374 12.1602V5.83518C0.897016 3.48249 2.84695 1.62186 5.20004 1.66851ZM13.9584 15.1102C15.6321 15.1522 17.0251 13.8337 17.075 12.1602V5.86851C17.0251 4.19166 15.627 2.87181 13.95 2.91851H5.20004C3.52309 2.87181 2.12495 4.19166 2.07504 5.86851V12.1602C2.12495 13.837 3.52309 15.1569 5.20004 15.1102H6.55004C7.27263 15.1103 7.95613 15.4383 8.40837 16.0018L9.57504 17.4852L10.7417 16.0018C11.194 15.4383 11.8775 15.1103 12.6 15.1102H13.9584Z" fill="black"/>
<path d="M6.45004 7.46851C6.10486 7.46851 5.82504 7.74834 5.82504 8.09351V10.0935C5.82504 10.4387 6.10486 10.7185 6.45004 10.7185C6.79522 10.7185 7.07504 10.4387 7.07504 10.0935V8.09351C7.07504 7.74834 6.79522 7.46851 6.45004 7.46851Z" fill="black"/>
<path d="M9.57504 7.46851C9.22986 7.46851 8.95004 7.74834 8.95004 8.09351V10.0935C8.95004 10.4387 9.22986 10.7185 9.57504 10.7185C9.92022 10.7185 10.2 10.4387 10.2 10.0935V8.09351C10.2 7.74834 9.92022 7.46851 9.57504 7.46851Z" fill="black"/>
<path d="M12.7 7.46851C12.3549 7.46851 12.075 7.74834 12.075 8.09351V10.0935C12.075 10.4387 12.3549 10.7185 12.7 10.7185C13.0452 10.7185 13.325 10.4387 13.325 10.0935V8.09351C13.325 7.74834 13.0452 7.46851 12.7 7.46851Z" fill="black"/>
</svg>
