<svg width="100" height="100" viewBox="0 0 100 100" fill="none" xmlns="http://www.w3.org/2000/svg">
<path fill-rule="evenodd" clip-rule="evenodd" d="M81.5834 69.625L82.5834 74.375C83.531 78.4816 82.5954 82.7969 80.032 86.1423C77.4685 89.4876 73.5452 91.5135 69.3334 91.6667H30.6667C26.455 91.5135 22.5316 89.4876 19.9682 86.1423C17.4048 82.7969 16.4691 78.4816 17.4167 74.375L18.4167 69.625C19.5669 63.1949 25.0943 58.4695 31.6251 58.3333H68.3751C74.9058 58.4695 80.4333 63.1949 81.5834 69.625ZM69.3334 85.375C71.4492 85.3505 73.4404 84.3702 74.7501 82.7083V82.75C76.3571 80.7341 76.9832 78.1074 76.4584 75.5833L75.4584 70.8333C74.9036 67.3132 71.9361 64.6774 68.3751 64.5417H31.6251C28.0641 64.6774 25.0966 67.3132 24.5417 70.8333L23.5417 75.5833C23.0299 78.0941 23.6553 80.7027 25.2501 82.7083C26.5598 84.3702 28.551 85.3505 30.6667 85.375H69.3334Z" fill="black"/>
<path fill-rule="evenodd" clip-rule="evenodd" d="M52.0833 49.9999H47.9167C38.7119 49.9999 31.25 42.538 31.25 33.3333V22.3333C31.2389 18.6168 32.7103 15.0494 35.3382 12.4215C37.9662 9.79359 41.5336 8.32216 45.25 8.33327H54.75C58.4664 8.32216 62.0338 9.79359 64.6618 12.4215C67.2897 15.0494 68.7611 18.6168 68.75 22.3333V33.3333C68.75 42.538 61.2881 49.9999 52.0833 49.9999ZM45.25 14.5833C40.9698 14.5833 37.5 18.0531 37.5 22.3333V33.3333C37.5 39.0862 42.1637 43.7499 47.9167 43.7499H52.0833C57.8363 43.7499 62.5 39.0862 62.5 33.3333V22.3333C62.5 20.2778 61.6835 18.3066 60.2301 16.8532C58.7767 15.3998 56.8054 14.5833 54.75 14.5833H45.25Z" fill="black"/>
</svg>
